<svg width="159" height="69" viewBox="0 0 159 69" fill="none" xmlns="http://www.w3.org/2000/svg">
<g clip-path="url(#clip0_3_22)">
<path d="M71.6937 33.2732C69.7676 33.314 67.8691 32.8077 66.2177 31.8127C64.6323 30.829 63.354 29.419 62.5281 27.7429C61.6583 25.8155 61.2084 23.7244 61.2084 21.6089C61.2084 19.4933 61.6583 17.4021 62.5281 15.4748C63.3487 13.7951 64.6282 12.3837 66.2177 11.4049C67.8691 10.41 69.7676 9.90366 71.6937 9.94447C73.6511 9.89899 75.5819 10.405 77.2669 11.4049C78.8655 12.3726 80.1478 13.787 80.9564 15.4748C81.8324 17.4005 82.2857 19.4923 82.2857 21.6089C82.2857 23.7254 81.8324 25.8172 80.9564 27.7429C80.1369 29.4295 78.849 30.8428 77.2474 31.8127C75.5702 32.814 73.6452 33.3203 71.6937 33.2732ZM71.6937 30.138C73.0638 30.1825 74.4159 29.8164 75.5775 29.0865C76.6709 28.3529 77.5384 27.3278 78.0825 26.1266C78.6807 24.6959 78.9887 23.1602 78.9887 21.6089C78.9887 20.0575 78.6807 18.5217 78.0825 17.0911C77.638 16.1981 77.0143 15.4068 76.2504 14.7669C75.4866 14.127 74.5992 13.6522 73.6438 13.3725C72.6884 13.0927 71.6856 13.014 70.6984 13.1412C69.7113 13.2684 68.7609 13.5988 67.9071 14.1117C66.8004 14.8218 65.9287 15.8451 65.4021 17.0521C64.7806 18.4956 64.4759 20.0563 64.5088 21.6283C64.4776 23.1813 64.7823 24.7225 65.4021 26.1461C65.9224 27.3622 66.7951 28.3934 67.9071 29.106C69.0419 29.8171 70.3556 30.1887 71.6937 30.177V30.138Z" fill="#ECECEC"/>
<path d="M92.7047 33.1369C91.6005 33.1614 90.5051 32.935 89.5006 32.4748C88.5922 32.0461 87.7897 31.421 87.1509 30.6443C86.5118 29.8661 86.0244 28.9743 85.7139 28.0154C85.4003 27.0003 85.2432 25.943 85.2479 24.8803C85.2447 23.8304 85.4019 22.7862 85.7139 21.7841C86.0239 20.8191 86.5112 19.9208 87.1509 19.1357C87.7852 18.3593 88.5892 17.7397 89.5006 17.3247C90.5051 16.8645 91.6005 16.6381 92.7047 16.6626C94.1331 16.628 95.5393 17.0212 96.7437 17.7921C97.9416 18.6129 98.8305 19.8128 99.2682 21.1999L96.4913 22.2709C96.2477 21.4699 95.7832 20.7543 95.1514 20.2067C94.4658 19.6382 93.5933 19.3465 92.7047 19.3889C91.8207 19.3571 90.954 19.6399 90.2579 20.1873C89.6203 20.6976 89.1308 21.3701 88.8403 22.1346C88.2455 23.8631 88.2455 25.7417 88.8403 27.4702C89.1238 28.2385 89.6146 28.9127 90.2579 29.4175C90.9619 29.9478 91.8246 30.2224 92.7047 30.1964C93.5896 30.2351 94.4586 29.9515 95.1514 29.398C95.7879 28.8466 96.253 28.1234 96.4913 27.3144L99.2682 28.3854C98.8314 29.7834 97.9433 30.996 96.7437 31.8322C95.5591 32.6649 94.1513 33.1197 92.7047 33.1369Z" fill="#ECECEC"/>
<path d="M109.482 33.1369C108.336 33.1628 107.198 32.9437 106.142 32.4943C105.23 32.0898 104.425 31.4762 103.793 30.7027C103.165 29.9306 102.69 29.0448 102.395 28.0933C102.081 27.0982 101.924 26.0602 101.929 25.0166C101.927 23.9619 102.078 22.9125 102.375 21.9009C102.666 20.9313 103.126 20.0214 103.734 19.2136C104.335 18.4003 105.112 17.7344 106.006 17.2663C107.014 16.7918 108.117 16.5585 109.23 16.5848C110.337 16.5517 111.438 16.7645 112.453 17.2079C113.315 17.6056 114.073 18.1989 114.667 18.941C115.248 19.6933 115.688 20.5442 115.968 21.453C116.261 22.3986 116.405 23.384 116.395 24.374C116.395 24.4908 116.395 24.6856 116.395 24.9777C116.426 25.2494 116.426 25.5238 116.395 25.7955H105.171C105.163 27.0144 105.63 28.1884 106.473 29.067C107.346 29.8608 108.499 30.2741 109.677 30.2159C110.5 30.235 111.318 30.0893 112.084 29.7875C112.825 29.4745 113.488 29.0026 114.026 28.4049L115.968 30.3522C115.388 30.9391 114.735 31.4495 114.026 31.8711C113.388 32.2601 112.694 32.5491 111.968 32.7279C111.159 32.9668 110.325 33.1041 109.482 33.1369ZM113.366 24.2961C113.375 24.1274 113.375 23.9584 113.366 23.7898C113.366 23.6145 113.366 23.4393 113.366 23.264C113.351 22.2626 112.987 21.298 112.337 20.5378C111.975 20.1552 111.539 19.8505 111.055 19.642C110.505 19.3992 109.909 19.2796 109.308 19.2915C108.515 19.2752 107.734 19.4845 107.055 19.8952C106.448 20.2786 105.952 20.816 105.618 21.453C105.287 22.1085 105.089 22.8233 105.036 23.5561H114.298L113.366 24.2961Z" fill="#ECECEC"/>
<path d="M125.27 33.1369C124.199 33.1582 123.138 32.9386 122.163 32.4943C121.3 32.1207 120.568 31.496 120.063 30.7011C119.557 29.9061 119.301 28.9774 119.328 28.035C119.302 27.2465 119.49 26.4659 119.871 25.7761C120.207 25.1673 120.696 24.6571 121.289 24.2961C121.856 23.9471 122.481 23.7031 123.134 23.5756C123.87 23.4324 124.617 23.3606 125.367 23.3614H130.493V25.7566H125.891C125.449 25.7577 125.007 25.7968 124.571 25.8734C124.141 25.9189 123.732 26.0804 123.386 26.3408C123.13 26.5281 122.923 26.7754 122.784 27.0613C122.623 27.374 122.543 27.7221 122.551 28.0739C122.54 28.4242 122.613 28.7721 122.765 29.0876C122.917 29.4031 123.144 29.6767 123.425 29.8849C124.101 30.3567 124.914 30.5896 125.736 30.547C126.517 30.5634 127.289 30.3683 127.969 29.9823C128.639 29.624 129.203 29.093 129.6 28.4439C130.009 27.77 130.218 26.9932 130.202 26.2045L131.328 27.6845C131.163 28.7271 130.78 29.7227 130.202 30.6054C129.693 31.4202 128.985 32.0906 128.144 32.5527C127.248 32.9805 126.261 33.1811 125.27 33.1369ZM130.396 32.8448L130.124 29.9044V22.8551C130.157 22.3805 130.089 21.9044 129.925 21.458C129.761 21.0116 129.505 20.6051 129.173 20.2652C128.394 19.6113 127.39 19.2897 126.377 19.3694C125.529 19.3683 124.69 19.5406 123.91 19.8758C123.062 20.2784 122.302 20.8479 121.677 21.5504L119.735 19.6031C120.608 18.6573 121.674 17.9131 122.862 17.4221C124.058 16.9631 125.329 16.732 126.61 16.7406C128.399 16.6268 130.165 17.2052 131.542 18.3568C132.15 18.9454 132.623 19.6596 132.928 20.4499C133.233 21.2401 133.363 22.0874 133.309 22.933V32.9227L130.396 32.8448Z" fill="#ECECEC"/>
<path d="M137.465 32.8448V16.9548H140.649V20.4404L140.009 20.6352C140.238 19.8252 140.65 19.079 141.213 18.4542C141.753 17.8778 142.417 17.4317 143.154 17.1495C143.892 16.8415 144.685 16.689 145.485 16.7016C146.241 16.6574 146.998 16.7694 147.71 17.0306C148.421 17.2919 149.072 17.6969 149.621 18.2205C150.69 19.4567 151.227 21.0669 151.116 22.6993V32.8837H147.97V23.8482C148.055 22.671 147.763 21.4974 147.135 20.4989C146.829 20.1327 146.441 19.8447 146.002 19.6585C145.563 19.4723 145.086 19.3932 144.611 19.4278C143.856 19.3987 143.11 19.6026 142.475 20.012C141.844 20.5045 141.388 21.1872 141.174 21.9593C140.849 22.9916 140.698 24.0709 140.727 25.1529V32.9422L137.465 32.8448Z" fill="#ECECEC"/>
<path d="M61.3436 58.5688V36.0189H76.1211V38.9593H64.5865V45.5413H75.1696V48.4622H64.5865V55.5699H76.1211V58.4908L61.3436 58.5688Z" fill="#ECECEC"/>
<path d="M79.869 58.5688V42.6787H83.0536V46.7681L82.374 47.0017C82.5331 46.2586 82.8014 45.5433 83.1702 44.8792C83.4824 44.3362 83.8903 43.8546 84.3741 43.4577C84.8212 43.0998 85.3272 42.823 85.8693 42.6398C86.4028 42.4688 86.9599 42.3834 87.5199 42.3866C88.3769 42.3764 89.2256 42.5559 90.0055 42.9124C90.7877 43.2817 91.4579 43.8529 91.9474 44.5676C92.5091 45.4477 92.8552 46.4487 92.9572 47.4886L91.1706 47.8391C91.4143 46.7553 91.8412 45.7212 92.4328 44.7818C92.9125 44.0244 93.5821 43.4066 94.3747 42.9903C95.186 42.5767 96.0863 42.3694 96.9962 42.3866C98.1323 42.3342 99.2552 42.6481 100.2 43.2824C101.003 43.8727 101.617 44.6847 101.967 45.6191C102.357 46.6243 102.548 47.6956 102.531 48.7738V58.5103H99.4236V49.6501C99.4365 48.8458 99.3251 48.0444 99.0934 47.2744C98.9242 46.6792 98.5789 46.1496 98.1031 45.7555C97.5776 45.3807 96.9411 45.1954 96.2972 45.2297C95.6038 45.1828 94.9161 45.3828 94.3553 45.7944C93.794 46.2215 93.3798 46.8138 93.1708 47.4886C92.8906 48.396 92.7594 49.3431 92.7824 50.2927V58.6661H89.6172V49.4553C89.7011 48.3414 89.429 47.2297 88.8404 46.2812C88.5767 45.9326 88.2316 45.6542 87.8354 45.4709C87.4392 45.2875 87.0041 45.2047 86.5684 45.2297C85.8763 45.194 85.1923 45.393 84.6266 45.7944C84.059 46.2195 83.638 46.8118 83.4226 47.4886C83.1254 48.3925 82.9874 49.3413 83.0148 50.2927V58.6661L79.869 58.5688Z" fill="#ECECEC"/>
<path d="M106.647 65.2285V42.6787H109.793V47.2549L108.9 46.9628C109.122 46.0252 109.546 45.1479 110.143 44.3923C110.655 43.7378 111.323 43.2223 112.084 42.8929C113.1 42.4771 114.2 42.3131 115.292 42.4148C116.384 42.5165 117.435 42.8809 118.357 43.4771C119.439 44.2046 120.294 45.2239 120.823 46.4175C121.426 47.7428 121.724 49.1868 121.697 50.6432C121.734 52.1506 121.415 53.6454 120.765 55.0051C120.203 56.1808 119.321 57.1731 118.221 57.8677C117.148 58.5322 115.909 58.8766 114.648 58.8608C113.757 58.8742 112.875 58.6879 112.065 58.3156C111.313 57.9524 110.65 57.4271 110.123 56.7772C109.566 56.1001 109.18 55.2987 108.997 54.4404L109.793 53.9925V65.2285H106.647ZM114.007 56.0372C114.857 56.0619 115.696 55.8314 116.415 55.3751C117.127 54.8989 117.681 54.221 118.007 53.4278C118.391 52.55 118.589 51.6018 118.589 50.6432C118.589 49.6846 118.391 48.7364 118.007 47.8585C117.672 47.0706 117.12 46.3951 116.415 45.9112C115.698 45.4481 114.859 45.2108 114.007 45.2296C113.173 45.2141 112.354 45.4517 111.657 45.9112C110.953 46.3904 110.405 47.0679 110.084 47.8585C109.713 48.7396 109.521 49.6865 109.521 50.6432C109.521 51.5998 109.713 52.5468 110.084 53.4278C110.408 54.1887 110.95 54.8357 111.642 55.2865C112.334 55.7374 113.143 55.9716 113.968 55.9593L114.007 56.0372Z" fill="#ECECEC"/>
<path d="M125.134 39.9135V36.0189H128.707V39.9135H125.134ZM125.367 58.5493V42.6592H128.552V58.5493H125.367Z" fill="#ECECEC"/>
<path d="M132.862 58.5687V42.6787H136.047V46.9628L135.368 47.0991C135.455 46.1966 135.798 45.3382 136.358 44.626C136.877 43.9444 137.54 43.3859 138.3 42.9903C138.974 42.6017 139.736 42.3938 140.513 42.3866C141.004 42.3833 141.494 42.4421 141.97 42.5619C142.465 42.6878 142.937 42.8915 143.368 43.1655L141.834 46.0086C141.554 45.854 141.253 45.7424 140.941 45.6776C140.603 45.5977 140.258 45.552 139.911 45.5412C139.414 45.543 138.92 45.6354 138.455 45.8139C137.972 45.9851 137.539 46.2727 137.193 46.6512C136.785 47.0697 136.491 47.5859 136.338 48.1506C136.233 48.5396 136.161 48.9371 136.125 49.3385C136.09 49.9871 136.09 50.6372 136.125 51.2858V58.5298L132.862 58.5687Z" fill="#ECECEC"/>
<path d="M152.087 58.8608C150.941 58.8867 149.802 58.6676 148.747 58.2182C147.835 57.8137 147.03 57.2001 146.397 56.4267C145.769 55.6546 145.294 54.7688 144.999 53.8173C144.686 52.8221 144.529 51.7841 144.533 50.7405C144.533 49.6859 144.683 48.6368 144.98 47.6249C145.27 46.6613 145.731 45.7578 146.339 44.957C146.928 44.1333 147.708 43.4651 148.611 43.0097C149.614 42.5194 150.719 42.2789 151.834 42.3087C152.941 42.2837 154.04 42.4962 155.058 42.9318C155.921 43.3363 156.679 43.9363 157.272 44.6844C157.853 45.4292 158.294 46.2738 158.573 47.177C158.864 48.1294 159.008 49.1211 159 50.1174C159 50.2148 159 50.429 159 50.7016C159.03 50.9799 159.03 51.2606 159 51.5389H147.776C147.768 52.7578 148.235 53.9318 149.077 54.8104C149.955 55.5969 151.105 56.009 152.281 55.9593C153.106 55.9722 153.924 55.8199 154.689 55.5114C155.425 55.1993 156.087 54.7348 156.631 54.1483L158.573 56.0956C157.992 56.6825 157.34 57.1929 156.631 57.6145C155.992 58.0035 155.298 58.2925 154.573 58.4713C153.765 58.7137 152.929 58.8447 152.087 58.8608ZM155.971 50.0395C155.98 49.8644 155.98 49.6888 155.971 49.5137C155.971 49.3385 155.971 49.1632 155.971 48.988C155.967 48.4952 155.875 48.007 155.699 47.5469C155.535 47.0778 155.277 46.6472 154.941 46.2812C154.581 45.8916 154.145 45.5802 153.66 45.366C153.105 45.1387 152.511 45.0261 151.912 45.0349C151.121 45.0117 150.34 45.2143 149.66 45.6191C149.051 46.01 148.556 46.5539 148.223 47.1964C147.892 47.845 147.693 48.5535 147.64 49.28H156.903L155.971 50.0395Z" fill="#ECECEC"/>
<path d="M38.7208 59.2697C37.2596 59.2716 35.8141 58.9677 34.4766 58.3776C33.1392 57.7874 31.9392 56.924 30.9533 55.8425C30.3213 55.0683 29.5258 54.4445 28.6241 54.0162C27.7224 53.5879 26.7371 53.3657 25.7394 53.3657C24.7417 53.3657 23.7564 53.5879 22.8548 54.0162C21.9531 54.4445 21.1575 55.0683 20.5255 55.8425C19.5516 56.9205 18.3633 57.7822 17.0373 58.3718C15.7112 58.9615 14.2766 59.2662 12.826 59.2662C11.3754 59.2662 9.94087 58.9615 8.61477 58.3718C7.28868 57.7822 6.10042 56.9205 5.12652 55.8425C4.48988 55.0763 3.69462 54.4583 2.79596 54.0313C1.89729 53.6042 0.916724 53.3784 -0.0776978 53.3694V49.65C1.38276 49.6529 2.82684 49.9589 4.16362 50.5487C5.5004 51.1386 6.70094 51.9995 7.68977 53.0773C8.31989 53.8511 9.11375 54.4747 10.0138 54.903C10.9139 55.3313 11.8977 55.5534 12.894 55.5534C13.8902 55.5534 14.874 55.3313 15.7741 54.903C16.6742 54.4747 17.468 53.8511 18.0982 53.0773C19.0721 51.9992 20.2603 51.1376 21.5864 50.5479C22.9125 49.9582 24.3471 49.6536 25.7977 49.6536C27.2483 49.6536 28.6828 49.9582 30.0089 50.5479C31.335 51.1376 32.5233 51.9992 33.4972 53.0773C34.1273 53.8511 34.9212 54.4747 35.8213 54.903C36.7213 55.3313 37.7051 55.5534 38.7014 55.5534C39.6977 55.5534 40.6815 55.3313 41.5815 54.903C42.4816 54.4747 43.2755 53.8511 43.9056 53.0773C44.8937 51.9985 46.0941 51.137 47.431 50.5471C48.768 49.9572 50.2124 49.6517 51.6731 49.65V53.3499C50.6762 53.3613 49.6936 53.5881 48.7921 54.0149C47.8907 54.4416 47.0916 55.0584 46.4494 55.823C45.4697 56.9032 44.2768 57.7675 42.9463 58.3608C41.6159 58.9542 40.1769 59.2637 38.7208 59.2697Z" fill="#AA9886"/>
<path d="M38.7208 68.5C37.2576 68.503 35.8101 68.1977 34.472 67.604C33.1339 67.0102 31.9351 66.1412 30.9533 65.0533C30.3213 64.2791 29.5258 63.6553 28.6241 63.227C27.7224 62.7987 26.7371 62.5765 25.7394 62.5765C24.7417 62.5765 23.7564 62.7987 22.8548 63.227C21.9531 63.6553 21.1575 64.2791 20.5255 65.0533C19.5549 66.1368 18.3677 67.0033 17.0412 67.5964C15.7146 68.1896 14.2784 68.4962 12.826 68.4962C11.3736 68.4962 9.93739 68.1896 8.61086 67.5964C7.28433 67.0033 6.09716 66.1368 5.12652 65.0533C4.48988 64.2872 3.69462 63.6691 2.79596 63.2421C1.89729 62.815 0.916724 62.5892 -0.0776978 62.5802V58.8803C1.38476 58.8821 2.8308 59.1896 4.16818 59.783C5.50555 60.3765 6.7049 61.2429 7.68977 62.327C8.31989 63.1009 9.11375 63.7245 10.0138 64.1527C10.9139 64.581 11.8977 64.8032 12.894 64.8032C13.8902 64.8032 14.874 64.581 15.7741 64.1527C16.6742 63.7245 17.468 63.1009 18.0982 62.327C19.0688 61.2435 20.256 60.377 21.5825 59.7839C22.9091 59.1907 24.3453 58.8841 25.7977 58.8841C27.2501 58.8841 28.6863 59.1907 30.0128 59.7839C31.3394 60.377 32.5265 61.2435 33.4972 62.327C34.1273 63.1009 34.9212 63.7245 35.8213 64.1527C36.7213 64.581 37.7051 64.8032 38.7014 64.8032C39.6977 64.8032 40.6815 64.581 41.5815 64.1527C42.4816 63.7245 43.2755 63.1009 43.9056 62.327C44.8889 61.241 46.088 60.3733 47.4257 59.7797C48.7634 59.1861 50.2102 58.8797 51.6731 58.8803V62.5802C50.6762 62.5915 49.6936 62.8184 48.7921 63.2451C47.8907 63.6719 47.0916 64.2887 46.4494 65.0533C45.472 66.1364 44.2795 67.0025 42.9485 67.5961C41.6175 68.1897 40.1775 68.4975 38.7208 68.5Z" fill="#AA9886"/>
<path d="M36.4294 50.0201C33.3388 47.821 30.3698 45.4547 27.5357 42.9319L25.8074 41.374L24.0986 42.9319C21.2617 45.4595 18.286 47.8259 15.1854 50.0201C11.8409 46.2106 9.14448 41.8751 7.20434 37.1873C9.57342 35.9021 11.8843 34.5195 14.1174 33.098C18.1931 30.4643 22.0858 27.5561 25.7686 24.3935C29.4551 27.5514 33.3475 30.4593 37.4198 33.098C39.6724 34.539 41.9832 35.9216 44.3523 37.2068C42.4203 41.8797 39.7445 46.2071 36.4294 50.0201ZM46.1388 32.2217C44.1969 31.1312 42.255 29.9628 40.3132 28.7165C35.8078 25.8182 31.5414 22.5623 27.5551 18.98L25.8269 17.4416L24.118 18.98C20.1199 22.5563 15.8475 25.8118 11.3405 28.7165C9.39866 29.9433 7.45679 31.1312 5.51493 32.2217C4.2372 27.9108 3.58324 23.4383 3.57306 18.941C3.57306 17.6558 3.57306 16.3706 3.72841 15.0464C11.6588 11.0963 19.0796 6.19193 25.8269 0.441589C29.5137 3.59316 33.4061 6.49461 37.4781 9.1266C40.8366 11.2775 44.3186 13.2281 47.9059 14.9685C47.9059 16.2343 48.0612 17.5195 48.0612 18.8631C48.0818 23.3854 47.4407 27.8861 46.1582 32.2217H46.1388Z" fill="#AA9886"/>
</g>
<defs>
<clipPath id="clip0_3_22">
<rect width="159" height="68" fill="white" transform="translate(0 0.5)"/>
</clipPath>
</defs>
</svg>
